<svg xmlns="http://www.w3.org/2000/svg" xmlns:xlink="http://www.w3.org/1999/xlink" width="1440" height="1440" viewBox="-241.409 -554.409 2181.818 2181.818">
  <defs>
    <style>
      .cls-1 {
        fill: #fff;
        filter: url(#filter);
      }

      .cls-1, .cls-2 {
        fill-rule: evenodd;
      }

      .cls-2 {
        fill: #057640;
      }
    </style>
    <clipPath id="clip-path">
      <rect width="1699" height="1073"/>
    </clipPath>
    <filter id="filter" x="53" y="429.094" width="1603.22" height="214.625" filterUnits="userSpaceOnUse">
      <feFlood result="flood" flood-color="#087abc"/>
      <feComposite result="composite" operator="in" in2="SourceGraphic"/>
      <feBlend result="blend" in2="SourceGraphic"/>
    </filter>
  </defs>
  <g clip-path="url(#clip-path)">
    <path id="MEDSCOPE" class="cls-1" d="M283.36,432.575H221.484l-39.852,91.241c-4.545,10.487-10.138,24.82-12.585,33.56H167.3c-2.447-8.74-8.04-23.073-12.585-33.56l-39.852-91.241H52.986V640.226H108.57V532.555h1.747a184.559,184.559,0,0,0,9.789,31.812l19.576,46.145h54.535l19.576-46.145c4.895-11.536,8.041-21.324,9.789-31.812h1.748V640.226h58.03V432.575Zm179.7,0H318.329V640.226H464.8V588.488H376.36V560.872h67.119v-50.34H376.36V484.313h82.5ZM685.746,536.4c0-59.779-44.047-103.826-114.663-103.826H491.029V640.226h80.054C641.349,640.226,685.746,596.179,685.746,536.4Zm-60.478,0c0,33.909-20.625,54.884-54.185,54.884H548.71V481.517h22.373C604.643,481.517,625.268,502.491,625.268,536.4Zm228.985-96.135c-16.081-7.341-45.445-11.187-65.372-11.187-51.738,0-84.6,27.268-84.6,68.518,0,73.762,99.281,56.982,99.281,82.152,0,10.138-9.439,12.934-28.666,12.934-23.072,0-50.689-6.991-63.624-15.381l-4.2,54.185c15.032,7.341,39.853,12.235,66.071,12.235,57.332,0,89.843-26.568,89.843-69.217,0-74.81-99.281-58.38-99.281-82.151,0-9.09,9.089-12.236,26.568-12.236,16.43,0,41.95,4.894,53.486,11.886ZM1054.92,629.739l-2.45-55.933c-12.23,9.439-32.16,16.081-57.328,16.081-34.958,0-57.332-22.024-57.332-53.486,0-34.958,22.723-53.486,53.486-53.486,19.224,0,34.264,6.292,46.494,16.78l18.88-52.437c-17.83-12.236-40.55-18.179-69.918-18.179-62.226,0-108.37,45.446-108.37,107.322,0,61.177,43,107.321,114.662,107.321C1016.82,643.722,1039.89,639.178,1054.92,629.739Zm128.3-200.66c-63.62,0-110.11,45.446-110.11,107.322s46.49,107.321,110.11,107.321,110.12-45.445,110.12-107.321S1246.85,429.079,1183.22,429.079Zm0,162.556c-29.01,0-49.64-22.723-49.64-55.234s20.63-55.234,49.64-55.234,49.64,22.723,49.64,55.234S1212.24,591.635,1183.22,591.635Zm301-85.3c0-46.145-31.11-73.762-89.49-73.762h-76.21V640.226h58.03V580.1h17.48C1452.76,580.1,1484.22,552.482,1484.22,506.337Zm-58.38,0c0,16.43-9.79,26.218-32.16,26.218h-17.13V480.118h17.13C1416.05,480.118,1425.84,489.907,1425.84,506.337Zm228.64-73.762H1509.75V640.226h146.48V588.488h-88.45V560.872h67.12v-50.34h-67.12V484.313h82.5Z"/>
    <path id="NG" class="cls-2" d="M1578.67,686.117h-18.74v36.416h-0.59a87.843,87.843,0,0,0-5.54-8.957l-19.21-27.459h-18.98v70h18.74v-39.6h0.59a87.843,87.843,0,0,0,5.54,8.957l21.57,30.641h16.62v-70Zm69.77,4.949c-6.01-4.124-14.26-6.128-24.16-6.128-21.45,0-37.13,15.321-37.13,36.181,0,20.624,14.5,36.181,38.42,36.181,10.26,0,19.92-2.357,25.93-6.011v-31l-19.56.707v17.8a38.038,38.038,0,0,1-5.42.354c-11.79,0-19.33-7.425-19.33-18.032,0-12.139,8.25-18.032,18.62-18.032a24.736,24.736,0,0,1,16.26,5.657Z"/>
  </g>
</svg>
